<svg width="53" height="53" viewBox="0 0 53 53" fill="none" xmlns="http://www.w3.org/2000/svg">
<path d="M46.9264 36.1276C44.9831 36.1276 44.1218 35.3768 42.9072 34.3168C41.5602 33.1684 39.8819 31.7109 36.7239 31.7109C33.5439 31.7109 31.8877 33.1684 30.5406 34.3168C29.326 35.3768 28.4427 36.1276 26.4993 36.1276C24.5781 36.1276 23.6947 35.3768 22.4802 34.3168C21.1331 33.1684 19.4548 31.7109 16.2969 31.7109C13.1169 31.7109 11.4385 33.1684 10.0914 34.3168C8.87686 35.3768 8.0156 36.1276 6.07227 36.1276C5.16685 36.1276 4.41602 36.8784 4.41602 37.7839C4.41602 38.7114 5.16685 39.4401 6.07227 39.4401C9.25227 39.4401 10.9085 38.0047 12.2556 36.8343C13.4702 35.7743 14.3535 35.0234 16.2969 35.0234C18.2402 35.0234 19.1015 35.7743 20.316 36.8343C21.6631 38.0047 23.3414 39.4401 26.4993 39.4401C29.6793 39.4401 31.3577 38.0047 32.7048 36.8343C33.9193 35.7743 34.7806 35.0234 36.7239 35.0234C38.6452 35.0234 39.5285 35.7743 40.7431 36.8343C42.0902 38.0047 43.7685 39.4401 46.9264 39.4401C47.8318 39.4401 48.5827 38.7114 48.5827 37.7839C48.5827 36.8784 47.8318 36.1276 46.9264 36.1276Z" fill="#141416"/>
<path d="M46.9264 27.0309C44.9831 27.0309 44.1218 26.258 42.9072 25.2201C41.5602 24.0497 39.8819 22.6143 36.7239 22.6143C33.5439 22.6143 31.8877 24.0497 30.5406 25.2201C29.326 26.258 28.4427 27.0309 26.4993 27.0309C24.5781 27.0309 23.6947 26.258 22.4802 25.2201C21.1331 24.0497 19.4548 22.6143 16.2969 22.6143C13.1169 22.6143 11.4385 24.0497 10.0914 25.2201C8.87686 26.258 8.0156 27.0309 6.07227 27.0309C5.16685 27.0309 4.41602 27.7597 4.41602 28.6872C4.41602 29.5926 5.16685 30.3434 6.07227 30.3434C9.25227 30.3434 10.9085 28.8859 12.2556 27.7155C13.4702 26.6776 14.3535 25.9268 16.2969 25.9268C18.2402 25.9268 19.1015 26.6776 20.316 27.7155C21.6631 28.8859 23.3414 30.3434 26.4993 30.3434C29.6793 30.3434 31.3577 28.8859 32.7048 27.7155C33.9193 26.6776 34.7806 25.9268 36.7239 25.9268C38.6452 25.9268 39.5285 26.6776 40.7431 27.7155C42.0902 28.8859 43.7685 30.3434 46.9264 30.3434C47.8318 30.3434 48.5827 29.5926 48.5827 28.6872C48.5827 27.7597 47.8318 27.0309 46.9264 27.0309Z" fill="#141416"/>
<path d="M6.07227 21.2887C9.25227 21.2887 10.9085 19.8312 12.2556 18.6829C13.4702 17.6229 14.3535 16.8721 16.2969 16.8721C18.2402 16.8721 19.1015 17.6229 20.316 18.6829C21.6631 19.8312 23.3414 21.2887 26.4993 21.2887C29.6793 21.2887 31.3577 19.8312 32.7048 18.6829C33.9193 17.6229 34.7806 16.8721 36.7239 16.8721C38.6452 16.8721 39.5285 17.6229 40.7431 18.6829C42.0902 19.8312 43.7685 21.2887 46.9264 21.2887C47.8318 21.2887 48.5827 20.5379 48.5827 19.6325C48.5827 18.705 47.8318 17.9762 46.9264 17.9762C44.9831 17.9762 44.1218 17.2254 42.9072 16.1654C41.5602 14.995 39.8819 13.5596 36.7239 13.5596C33.5439 13.5596 31.8876 14.995 30.5406 16.1654C29.326 17.2254 28.4427 17.9762 26.4993 17.9762C24.5781 17.9762 23.6947 17.2254 22.4802 16.1654C21.1331 14.995 19.4548 13.5596 16.2969 13.5596C13.1169 13.5596 11.4385 14.995 10.0914 16.1654C8.87686 17.2254 8.0156 17.9762 6.07227 17.9762C5.16685 17.9762 4.41602 18.705 4.41602 19.6325C4.41602 20.5379 5.16685 21.2887 6.07227 21.2887Z" fill="#141416"/>
</svg>
