<?xml version="1.0" encoding="iso-8859-1"?>
<!-- Uploaded to: SVG Repo, www.svgrepo.com, Generator: SVG Repo Mixer Tools -->
<svg height="800px" width="800px" version="1.1" id="Layer_1" xmlns="http://www.w3.org/2000/svg" xmlns:xlink="http://www.w3.org/1999/xlink" 
	 viewBox="0 0 285.855 285.855" xml:space="preserve">
<g>
	<path style="fill:#FFDB77;" d="M134.776,240.787l-56.56,29.735c-12.85,6.756-27.868-4.156-25.414-18.464l10.802-62.98
		c0.975-5.682-0.909-11.479-5.037-15.503l-45.758-44.603c-10.396-10.133-4.659-27.788,9.707-29.876l63.236-9.189
		c5.705-0.829,10.637-4.412,13.188-9.582l28.28-57.301c6.425-13.018,24.989-13.018,31.413,0l28.28,57.301
		c2.551,5.17,7.483,8.753,13.188,9.582l63.236,9.189c14.367,2.088,20.103,19.743,9.707,29.876l-45.758,44.603
		c-4.128,4.024-6.012,9.822-5.037,15.503l10.802,62.98c2.454,14.309-12.564,25.22-25.414,18.464l-56.56-29.735
		C145.974,238.105,139.878,238.105,134.776,240.787z"/>
	<g>
		<path style="fill:#22313F;" d="M278.279,134.343c14.842-14.467,6.64-39.69-13.864-42.669l-63.235-9.188
			c-3.263-0.475-6.082-2.523-7.541-5.479l-28.28-57.301c-9.173-18.587-35.695-18.58-44.864,0l-28.28,57.301
			c-1.459,2.957-4.278,5.005-7.541,5.479l-63.235,9.188c-20.512,2.98-28.7,28.207-13.864,42.669l45.757,44.602
			c2.361,2.302,3.438,5.616,2.881,8.866l-10.802,62.98c-3.502,20.418,17.972,36.003,36.296,26.37l56.56-29.735h-0.001
			c2.919-1.534,6.404-1.534,9.322,0l56.56,29.735c18.34,9.643,39.8-5.944,36.296-26.37l-10.802-62.98
			c-0.558-3.25,0.52-6.564,2.88-8.865L278.279,134.343z M214.856,190.346l10.802,62.98c1.411,8.225-7.193,14.421-14.532,10.558
			l-56.56-29.735c-7.289-3.832-15.992-3.832-23.281,0h-0.001l-56.56,29.735c-7.369,3.877-15.937-2.367-14.532-10.558l10.802-62.98
			c1.392-8.116-1.298-16.393-7.195-22.143L18.041,123.6c-5.952-5.801-2.686-15.886,5.551-17.083l63.235-9.188
			c8.149-1.185,15.191-6.3,18.835-13.685l28.28-57.301c3.678-7.454,14.279-7.465,17.962,0l28.28,57.301
			c3.644,7.385,10.686,12.5,18.835,13.685l63.235,9.188c8.225,1.195,11.512,11.273,5.551,17.083l-45.758,44.604
			C216.154,173.952,213.464,182.229,214.856,190.346z"/>
		<path style="fill:#22313F;" d="M142.926,102.845c-22.096,0-40.073,17.977-40.073,40.072s17.977,40.072,40.073,40.072
			s40.073-17.977,40.073-40.072S165.022,102.845,142.926,102.845z M142.926,167.989c-13.825,0-25.073-11.247-25.073-25.072
			c0-13.825,11.248-25.072,25.073-25.072s25.073,11.247,25.073,25.072C167.999,156.742,156.751,167.989,142.926,167.989z"/>
	</g>
</g>
</svg>